<svg data-v-0dd9719b="" version="1.0" xmlns="http://www.w3.org/2000/svg" xmlns:xlink="http://www.w3.org/1999/xlink" width="100%" height="100%" viewBox="0 0 340.000000 250.000000" preserveAspectRatio="xMidYMid meet" color-interpolation-filters="sRGB" style="margin: auto;"> <rect data-v-0dd9719b="" x="0" y="0" width="100%" height="100%" fill="#fff" fill-opacity="1" class="background"></rect> <rect data-v-0dd9719b="" x="0" y="0" width="100%" height="100%" fill="url(#watermark)" fill-opacity="1" class="watermarklayer"></rect> <g data-v-0dd9719b="" fill="#00476e" class="icon-text-wrapper icon-svg-group iconsvg" transform="translate(47.470001220703125,94.98078536987305)"><g class="iconsvg-imagesvg" transform="translate(0,0)"><g><rect fill="#00476e" fill-opacity="0" stroke-width="2" x="0" y="0" width="60" height="60.03842459173871" class="image-rect"></rect> <svg x="0" y="0" width="60" height="60.03842459173871" filtersec="colorsb1270077090" class="image-svg-svg primary" style="overflow: visible;"><svg xmlns="http://www.w3.org/2000/svg" viewBox="0 0 77.87000274658203 77.91999816894531"><g><g><path d="M77.86 48v29.92L48 77.86zM0 29.91V0h29.91z" fill="#00476e"></path><path fill="#8fc31f" d="M77.87.01l-.01 29.72-19.5 19.5-29.71-29.71L48.15.02 77.87.01z"></path><path fill="#c30d23" d="M49.25 58.34L29.73 77.86l-29.72.01.01-29.72 19.52-19.52 29.71 29.71z"></path></g></g></svg></svg> <!----></g></g> <g transform="translate(67,5.567962646484375)"><g data-gra="path-name" fill-rule="" class="tp-name iconsvg-namesvg" transform="translate(0,0)"><g transform="scale(1)"><g><path d="M15.84-11.82L12.88-8.3Q12.29-9.26 11.73-10.1 11.16-10.94 10.61-11.71L10.61-11.71 10.61 3.62 6.37 3.62 6.37-9.84Q5.67-8.3 4.96-6.97 4.24-5.63 3.55-4.57L3.55-4.57 0.33-7.9Q1.06-8.96 1.83-10.24 2.6-11.52 3.33-12.95 4.06-14.38 4.72-15.88 5.38-17.38 5.89-18.84L5.89-18.84 2.71-18.84 2.71-23.2 6.37-23.2 6.37-28.98 10.61-28.79 10.61-23.2 13.54-23.2 13.54-18.84 10.61-18.84 10.61-15.18 11.78-16.39Q12.22-15.95 12.77-15.38 13.32-14.82 13.87-14.18 14.41-13.54 14.95-12.91 15.48-12.29 15.84-11.82L15.84-11.82ZM33.26-24.84L33.26-20.34 14.27-20.34 14.27-24.84 20.3-24.84 19.39-28.68 24.37-28.9 25.24-24.84 33.26-24.84ZM30.91-6.15L34.83-4.9Q34.79-4.61 34.74-4.1 34.68-3.59 34.63-2.98 34.57-2.38 34.5-1.74 34.43-1.1 34.35-0.59L34.35-0.59Q34.21 0.51 33.93 1.21 33.66 1.9 33.24 2.32 32.82 2.74 32.21 2.95 31.61 3.15 30.8 3.18L30.8 3.18Q29.82 3.26 29.14 3.26 28.46 3.26 27.44 3.18L27.44 3.18Q26.85 3.15 26.32 2.95 25.79 2.74 25.41 2.3 25.02 1.87 24.8 1.12 24.59 0.37 24.59-0.73L24.59-0.73 24.59-13.17 20.41-13.17 20.41-10.65Q20.41-8.12 20.21-6.15 20.01-4.17 19.48-2.47 18.95-0.77 17.98 0.77 17.01 2.3 15.48 3.91L15.48 3.91 11.89 0.8Q13.24-0.48 14.05-1.54 14.85-2.6 15.29-3.93 15.73-5.27 15.88-7.17 16.02-9.07 16.02-12L16.02-12 16.02-17.71 28.83-17.71 28.83-2.45Q28.83-1.61 28.88-1.28 28.94-0.95 29.3-0.95L29.3-0.95 29.82-0.95Q30.22-0.95 30.35-1.28 30.48-1.61 30.62-2.56L30.62-2.56Q30.73-3.37 30.8-4.23 30.88-5.09 30.91-6.15L30.91-6.15ZM63.59-28.76L67.98-28.57 67.98 2.96 63.59 2.96 63.59-10.9 61.02-9.44Q60.44-11.05 59.69-12.93 58.94-14.82 58.13-16.57L58.13-16.57 58.13 2.3 53.78 2.3 53.78-10.72 51.44-9.37Q50.93-10.9 50.23-12.6 49.54-14.3 48.8-15.95L48.8-15.95Q48.77-12.04 48.46-9.16 48.15-6.29 47.38-4.01 46.61-1.72 45.31 0.2 44.01 2.12 42.04 4.13L42.04 4.13 37.98 1.32Q39.95-0.62 41.21-2.34 42.48-4.06 43.19-6.09 43.9-8.12 44.18-10.74 44.45-13.35 44.45-17.12L44.45-17.12 44.45-28.76 48.8-28.57 48.8-19.83 50.89-20.89Q51.59-19.61 52.35-17.95 53.12-16.28 53.78-14.6L53.78-14.6 53.78-27.88 58.13-27.7 58.13-19.72 60.44-20.89Q61.17-19.5 62.01-17.71 62.85-15.91 63.59-14.09L63.59-14.09 63.59-28.76ZM40.35-20.89L44.2-19.98Q43.98-18.84 43.61-17.36 43.24-15.88 42.8-14.34 42.37-12.8 41.89-11.34 41.41-9.88 41.01-8.82L41.01-8.82 37.32-10.24Q37.79-11.38 38.25-12.71 38.71-14.05 39.11-15.44 39.51-16.83 39.84-18.24 40.17-19.65 40.35-20.89L40.35-20.89ZM105.73-9.95L90.15-9.95Q90.11-9.62 90.11-9.26 90.11-8.89 90.07-8.52L90.07-8.52Q90.07-8.3 90.04-8.2L90.04-8.2 102.84-8.2Q102.84-7.79 102.75-6.77 102.66-5.74 102.55-4.57 102.44-3.4 102.33-2.36 102.22-1.32 102.18-0.84L102.18-0.84Q102.07 0.33 101.74 1.1 101.41 1.87 100.79 2.32 100.17 2.78 99.16 3.04 98.16 3.29 96.7 3.4L96.7 3.4 93.55 3.66 92.23-0.11 95.52-0.33Q96.91-0.44 97.45-0.73 97.98-1.02 98.09-2.01L98.09-2.01 98.34-4.39 89.45-4.39Q89.12-3.11 88.54-1.99 87.95-0.88 87.02 0.18 86.09 1.24 84.75 2.27 83.41 3.29 81.62 4.43L81.62 4.43 78.37 1.17Q77.78 2.52 77.01 3.88L77.01 3.88 72.77 1.79Q73.83-0.29 74.58-2.05 75.33-3.8 75.8-5.67 76.28-7.54 76.5-9.71 76.72-11.89 76.72-14.78L76.72-14.78 76.72-26.56 87.91-26.56 87.29-29.3 92.12-29.52 92.74-26.56 104.16-26.56 104.16-16.57 81.37-16.57 81.37-15.7Q81.37-15.11 81.37-14.58 81.37-14.05 81.33-13.54L81.33-13.54 90.44-13.54 89.89-15.7 94.72-15.91 95.2-13.54 105.73-13.54 105.73-9.95ZM99.73-22.43L81.37-22.43 81.37-20.34 99.73-20.34 99.73-22.43ZM78.48 0.99L78.48 0.99Q80.49-0.11 81.8-1.1 83.12-2.09 83.93-3.16 84.73-4.24 85.06-5.54 85.39-6.84 85.46-8.6L85.46-8.6Q85.46-8.96 85.48-9.29 85.5-9.62 85.5-9.95L85.5-9.95 81.18-9.95Q81.04-8.23 80.8-6.75 80.56-5.27 80.21-3.93 79.87-2.6 79.45-1.39 79.02-0.18 78.48 0.99ZM138.18-6.88L142.39-5.6Q142.35-5.09 142.28-4.45 142.21-3.8 142.15-3.18 142.1-2.56 142.04-2.05 141.99-1.54 141.95-1.32L141.95-1.32Q141.77 0.07 141.51 0.88 141.26 1.68 140.73 2.12 140.2 2.56 139.34 2.74 138.48 2.93 137.09 3.04L137.09 3.04Q136.43 3.11 135.59 3.11 134.74 3.11 134.12 3.04L134.12 3.04Q133.1 2.96 132.29 2.73 131.49 2.49 130.92 1.96 130.35 1.43 130.06 0.57 129.77-0.29 129.77-1.65L129.77-1.65 129.77-14.3Q129.48-11.6 128.89-9.27 128.3-6.95 127.28-4.79 126.26-2.63 124.76-0.55 123.26 1.54 121.13 3.77L121.13 3.77 118.24 1.43 118.24 3.62 113.82 3.62 113.82-12.95Q113.38-12.29 112.88-11.65 112.39-11.01 111.88-10.35L111.88-10.35 109.02-13.98Q110.09-15.26 111.24-17.09 112.39-18.91 113.43-21 114.48-23.09 115.3-25.28 116.12-27.48 116.56-29.45L116.56-29.45 120.99-28.17Q120.37-26.12 119.67-24.31 118.98-22.5 118.24-20.78L118.24-20.78 118.24-0.22Q120.15-2.2 121.43-4.02 122.71-5.85 123.51-7.81 124.32-9.77 124.76-12 125.2-14.23 125.41-17.01L125.41-17.01 119.49-17.01 119.49-21.51 125.67-21.51Q125.67-22.28 125.67-23.34 125.67-24.4 125.67-25.46 125.67-26.52 125.67-27.46 125.67-28.39 125.67-28.94L125.67-28.94 130.28-28.76 130.13-21.51 135.66-21.51Q135.22-22.06 134.71-22.7 134.2-23.34 133.68-23.95 133.17-24.55 132.66-25.1 132.15-25.65 131.74-26.01L131.74-26.01 134.74-28.68Q135.26-28.24 135.9-27.62 136.54-27 137.2-26.32 137.85-25.65 138.44-24.95 139.02-24.26 139.43-23.67L139.43-23.67 137.41-21.51 141.04-21.51 141.04-17.01 129.99-17.01Q129.95-16.79 129.95-16.57 129.95-16.35 129.91-16.13L129.91-16.13 134.23-15.95 134.23-2.85Q134.23-2.38 134.29-2.1 134.34-1.83 134.49-1.66 134.63-1.5 134.89-1.43 135.15-1.35 135.59-1.32L135.59-1.32Q136.06-1.24 136.57-1.32L136.57-1.32Q137.27-1.39 137.49-1.63 137.71-1.87 137.82-2.82L137.82-2.82Q137.93-3.7 138.02-4.76 138.11-5.82 138.18-6.88L138.18-6.88ZM174.18-6.88L178.39-5.6Q178.35-5.09 178.28-4.45 178.21-3.8 178.15-3.18 178.1-2.56 178.04-2.05 177.99-1.54 177.95-1.32L177.95-1.32Q177.77 0.07 177.51 0.88 177.26 1.68 176.73 2.12 176.2 2.56 175.34 2.74 174.48 2.93 173.09 3.04L173.09 3.04Q172.43 3.11 171.59 3.11 170.74 3.11 170.12 3.04L170.12 3.04Q169.1 2.96 168.29 2.73 167.49 2.49 166.92 1.96 166.35 1.43 166.06 0.57 165.77-0.29 165.77-1.65L165.77-1.65 165.77-14.3Q165.48-11.6 164.89-9.27 164.3-6.95 163.28-4.79 162.26-2.63 160.76-0.55 159.26 1.54 157.13 3.77L157.13 3.77 154.24 1.43 154.24 3.62 149.82 3.62 149.82-12.95Q149.38-12.29 148.88-11.65 148.39-11.01 147.88-10.35L147.88-10.35 145.02-13.98Q146.09-15.26 147.24-17.09 148.39-18.91 149.43-21 150.48-23.09 151.3-25.28 152.12-27.48 152.56-29.45L152.56-29.45 156.99-28.17Q156.37-26.12 155.67-24.31 154.98-22.5 154.24-20.78L154.24-20.78 154.24-0.22Q156.15-2.2 157.43-4.02 158.71-5.85 159.51-7.81 160.32-9.77 160.76-12 161.2-14.23 161.41-17.01L161.41-17.01 155.49-17.01 155.49-21.51 161.67-21.51Q161.67-22.28 161.67-23.34 161.67-24.4 161.67-25.46 161.67-26.52 161.67-27.46 161.67-28.39 161.67-28.94L161.67-28.94 166.28-28.76 166.13-21.51 171.66-21.51Q171.22-22.06 170.71-22.7 170.2-23.34 169.68-23.95 169.17-24.55 168.66-25.1 168.15-25.65 167.74-26.01L167.74-26.01 170.74-28.68Q171.26-28.24 171.9-27.62 172.54-27 173.2-26.32 173.85-25.65 174.44-24.95 175.02-24.26 175.43-23.67L175.43-23.67 173.41-21.51 177.04-21.51 177.04-17.01 165.99-17.01Q165.95-16.79 165.95-16.57 165.95-16.35 165.91-16.13L165.91-16.13 170.23-15.95 170.23-2.85Q170.23-2.38 170.29-2.1 170.34-1.83 170.49-1.66 170.63-1.5 170.89-1.43 171.15-1.35 171.59-1.32L171.59-1.32Q172.06-1.24 172.57-1.32L172.57-1.32Q173.27-1.39 173.49-1.63 173.71-1.87 173.82-2.82L173.82-2.82Q173.93-3.7 174.02-4.76 174.11-5.82 174.18-6.88L174.18-6.88Z" transform="translate(-0.33000001311302185, 29.520000457763672)"></path></g> <!----> <!----> <!----> <!----> <!----> <!----> <!----></g></g> <g data-gra="path-slogan" fill-rule="" class="tp-slogan iconsvg-slogansvg" fill="#00476e" transform="translate(5,39.95000076293945)"><rect x="0" height="1" y="3.9750003814697266" width="3.5449981689453125"></rect> <rect height="1" y="3.9750003814697266" width="3.5449981689453125" x="164.51499938964844"></rect> <g transform="translate(6.5449981689453125,0)"><g transform="scale(1)"><path d="M2.06-5.06L6.56-5.06L6.56-8.58L7.73-8.58L7.73 0L6.56 0L6.56-3.98L2.06-3.98L2.06 0L0.89 0L0.89-8.58L2.06-8.58L2.06-5.06ZM15.19 0L14.34-2.48L10.88-2.48L9.98 0L8.81 0L12.05-8.58L13.36-8.58L16.45 0L15.19 0ZM12.61-7.31L11.25-3.52L13.92-3.52L12.66-7.31L12.61-7.31ZM18.89-8.58L23.20-1.64L23.20-8.58L24.33-8.58L24.33 0L23.02 0L18.66-6.94L18.61-6.94L18.61 0L17.48 0L17.48-8.58L18.89-8.58ZM32.53-3.61L29.91-3.61L29.91-4.59L33.66-4.59L33.66 0L32.91 0L32.63-1.08Q31.64 0.09 29.81 0.14L29.81 0.14Q28.08 0.14 27.14-0.75L27.14-0.75Q25.73-2.06 25.78-4.36L25.78-4.36Q26.11-8.63 29.86-8.81L29.86-8.81Q33.05-8.63 33.52-6L33.52-6L32.39-6Q31.92-7.78 29.81-7.83L29.81-7.83Q27.14-7.64 27-4.31L27-4.31Q27-0.75 29.86-0.75L29.86-0.75Q30.89-0.75 31.64-1.31L31.64-1.31Q32.58-2.06 32.53-3.61L32.53-3.61ZM36.28-1.03L41.58-1.03L41.58 0L34.83 0L34.83-0.94L40.08-7.59L35.20-7.59L35.20-8.58L41.58-8.58L41.58-7.59L36.28-1.03ZM43.88-5.06L48.38-5.06L48.38-8.58L49.55-8.58L49.55 0L48.38 0L48.38-3.98L43.88-3.98L43.88 0L42.70 0L42.70-8.58L43.88-8.58L43.88-5.06ZM58.13-4.27L58.13-4.27Q57.94-7.64 55.13-7.83L55.13-7.83Q52.27-7.69 52.13-4.27L52.13-4.27Q52.27-0.94 55.13-0.80L55.13-0.80Q57.94-0.98 58.13-4.27ZM59.30-4.27L59.30-4.27Q59.02 0 55.13 0.14L55.13 0.14Q51.19 0 50.91-4.27L50.91-4.27Q51.14-8.72 55.13-8.81L55.13-8.81Q59.02-8.67 59.30-4.27ZM66.33-3.19L66.33-8.58L67.50-8.58L67.50-3.05Q67.36 0.05 63.98 0.14L63.98 0.14Q60.84 0.05 60.70-2.86L60.70-2.86L60.70-8.58L61.88-8.58L61.88-3.19Q61.92-0.84 64.03-0.80L64.03-0.80Q66.33-0.84 66.33-3.19L66.33-3.19ZM78.14-3.89L73.92-3.89L73.92 0L72.75 0L72.75-8.58L78.70-8.58L78.70-7.59L73.92-7.59L73.92-4.92L78.14-4.92L78.14-3.89ZM85.55 0L84.70-2.48L81.23-2.48L80.34 0L79.17 0L82.41-8.58L83.72-8.58L86.81 0L85.55 0ZM82.97-7.31L81.61-3.52L84.28-3.52L83.02-7.31L82.97-7.31ZM89.25-8.58L93.56-1.64L93.56-8.58L94.69-8.58L94.69 0L93.38 0L89.02-6.94L88.97-6.94L88.97 0L87.84 0L87.84-8.58L89.25-8.58ZM102.89-3.61L100.27-3.61L100.27-4.59L104.02-4.59L104.02 0L103.27 0L102.98-1.08Q102 0.09 100.17 0.14L100.17 0.14Q98.44 0.14 97.50-0.75L97.50-0.75Q96.09-2.06 96.14-4.36L96.14-4.36Q96.47-8.63 100.22-8.81L100.22-8.81Q103.41-8.63 103.88-6L103.88-6L102.75-6Q102.28-7.78 100.17-7.83L100.17-7.83Q97.50-7.64 97.36-4.31L97.36-4.31Q97.36-0.75 100.22-0.75L100.22-0.75Q101.25-0.75 102-1.31L102-1.31Q102.94-2.06 102.89-3.61L102.89-3.61ZM112.73-8.58L109.50-3.47L109.50 0L108.33 0L108.33-3.47L105.09-8.58L106.45-8.58L108.89-4.45L111.38-8.58L112.73-8.58ZM120.56-4.27L120.56-4.27Q120.38-7.64 117.56-7.83L117.56-7.83Q114.70-7.69 114.56-4.27L114.56-4.27Q114.70-0.94 117.56-0.80L117.56-0.80Q120.38-0.98 120.56-4.27ZM121.73-4.27L121.73-4.27Q121.45 0 117.56 0.14L117.56 0.14Q113.63 0 113.34-4.27L113.34-4.27Q113.58-8.72 117.56-8.81L117.56-8.81Q121.45-8.67 121.73-4.27ZM128.77-3.19L128.77-8.58L129.94-8.58L129.94-3.05Q129.80 0.05 126.42 0.14L126.42 0.14Q123.28 0.05 123.14-2.86L123.14-2.86L123.14-8.58L124.31-8.58L124.31-3.19Q124.36-0.84 126.47-0.80L126.47-0.80Q128.77-0.84 128.77-3.19L128.77-3.19ZM138.66-8.58L135.42-3.47L135.42 0L134.25 0L134.25-3.47L131.02-8.58L132.38-8.58L134.81-4.45L137.30-8.58L138.66-8.58ZM146.48-4.27L146.48-4.27Q146.30-7.64 143.48-7.83L143.48-7.83Q140.63-7.69 140.48-4.27L140.48-4.27Q140.63-0.94 143.48-0.80L143.48-0.80Q146.30-0.98 146.48-4.27ZM147.66-4.27L147.66-4.27Q147.38 0 143.48 0.14L143.48 0.14Q139.55 0 139.27-4.27L139.27-4.27Q139.50-8.72 143.48-8.81L143.48-8.81Q147.38-8.67 147.66-4.27ZM154.69-3.19L154.69-8.58L155.86-8.58L155.86-3.05Q155.72 0.05 152.34 0.14L152.34 0.14Q149.20 0.05 149.06-2.86L149.06-2.86L149.06-8.58L150.23-8.58L150.23-3.19Q150.28-0.84 152.39-0.80L152.39-0.80Q154.69-0.84 154.69-3.19L154.69-3.19Z" transform="translate(-0.890625, 8.8125)"></path></g></g></g></g></g><defs v-gra="od"></defs></svg>